<?xml version="1.0" ?><svg style="enable-background:new 0 0 512 512;" version="1.1" viewBox="0 0 512 512" xml:space="preserve" xmlns="http://www.w3.org/2000/svg" xmlns:xlink="http://www.w3.org/1999/xlink"><style type="text/css">
	.st0{fill:#1E1E1E;}
	.st1{fill:#464646;stroke:#21759B;stroke-width:2;stroke-miterlimit:10;}
	.st2{fill:#FFFFFF;}
</style><g id="Edges"/><g id="Background_Bottom"><g><path class="st0" d="M492.3,443.1c0,34.2-27.7,61.9-61.9,61.9H80.7c-34.2,0-61.9-27.7-61.9-61.9V93.4c0-34.2,27.7-61.9,61.9-61.9    h349.7c34.2,0,61.9,27.7,61.9,61.9V443.1z"/></g></g><g id="Background"><path class="st1" d="M492.3,418.4c0,34.2-27.7,61.9-61.9,61.9H80.7c-34.2,0-61.9-27.7-61.9-61.9V68.6c0-34.2,27.7-61.9,61.9-61.9   h349.7c34.2,0,61.9,27.7,61.9,61.9V418.4z"/></g><g id="Symbol"><g><path class="st2" d="M280.1,327h-49c-7.7,0-14,6.3-14,14v37.7c0,4.9,2.6,9.2,6.4,11.7l10,10c0,4.2,3.5,7.7,7.7,7.7h28.6    c4.2,0,7.7-3.4,7.7-7.7l10-10c3.8-2.5,6.4-6.8,6.4-11.7v-37.7C294,333.3,287.7,327,280.1,327z"/><path class="st2" d="M340.7,175.2c-7.6-40.7-41-67.7-80.6-69.3c-34.3-1.4-61.1,13.2-79.2,42.6c-11.7,19-14.4,39.9-9.9,61.5    c3.6,17.2,12.8,32.3,21.3,47.5c3.3,5.9,5.6,12.4,9,18.1c3.6,6.1,5.8,12,5.6,19c-0.2,6.5,2.2,12.5,4.5,18.3c1.1,2.8,2.6,5,4.9,6.5    c3.2,2.1,6.7,1.9,8.1,1.9c6.8-0.2,13-0.4,18.7-0.5l0.1-59l-21.3-45.9c-0.2-0.4-0.1-0.9,0.3-1.3c0.2-0.2,0.6-0.4,0.9-0.4    c12.4,0,63.6,0,64.7,0c0.1,0,0.3,0,0.5,0.1c0.6,0.3,0.9,1,0.7,1.5l-21.1,45.5c0,19.9-0.1,39.8-0.1,59.7    c11.9,0.4,17.3,1.1,17.3,1.1c2.4,0.3,7.9,1.2,11.8-2c1.6-1.3,2.6-3,4.1-7.7c2.6-8.4,3.8-13.5,4-20.5c0.1-4.5,1.7-9.2,3.7-13.3    c6.6-13.5,13.3-27,20.7-40.1C340.4,218.5,344.8,197.5,340.7,175.2z"/><path class="st2" d="M285.8,216.6H225c6.9,14.8,13.7,29.7,20.6,44.5c0,19.8-0.1,39.7-0.1,59.5c7.7-0.1,14.2,0,19.6,0.2    c0-20,0-40,0-59.9L285.8,216.6z"/></g></g></svg>